<?xml version="1.0" standalone="no"?><!DOCTYPE svg PUBLIC "-//W3C//DTD SVG 1.1//EN" "http://www.w3.org/Graphics/SVG/1.1/DTD/svg11.dtd"><svg t="1733357800906" class="icon" viewBox="0 0 1024 1024" version="1.1" xmlns="http://www.w3.org/2000/svg" p-id="4516" xmlns:xlink="http://www.w3.org/1999/xlink" width="200" height="200"><path d="M266.666667 85.333333C214.016 85.333333 170.666667 128.682667 170.666667 181.333333v613.418667a32 32 0 0 0 0 10.368v37.546667c0 52.650667 43.349333 96 96 96h554.666666a32 32 0 1 0 0-64h-554.666666c-18.048 0-32-13.952-32-32V832h586.666666a32 32 0 0 0 32-32v-618.666667C853.333333 128.682667 809.984 85.333333 757.333333 85.333333h-490.666666z m0 64h490.666666c18.048 0 32 13.952 32 32V768H234.666667V181.333333c0-18.048 13.952-32 32-32zM512 213.333333c-48.234667 0-88.96 27.84-110.634667 67.498667-23.466667-1.237333-49.365333 2.069333-74.773333 21.418667-27.861333 21.205333-49.664 54.272-49.258667 93.653333 0.554667 52.608 36.992 95.445333 85.333334 109.589333V608c0 52.650667 43.349333 96 96 96h106.666666c52.650667 0 96-43.349333 96-96v-102.506667c48.341333-14.144 84.778667-56.981333 85.333334-109.568 0.405333-39.402667-21.397333-72.469333-49.258667-93.674666-25.408-19.349333-51.306667-22.656-74.773333-21.418667C600.938667 241.173333 560.213333 213.333333 512 213.333333z m0 64c29.141333 0 52.885333 19.2 60.885333 45.653334a32 32 0 0 0 40.362667 21.269333c15.957333-5.12 23.68-7.637333 45.418667 8.917333 15.104 11.52 24.149333 27.456 24 42.069334A52.885333 52.885333 0 0 1 629.333333 448a32 32 0 0 0-32 32V533.333333h-170.666666v-53.333333a32 32 0 0 0-32-32 52.885333 52.885333 0 0 1-53.333334-52.757333c-0.149333-14.613333 8.896-30.570667 24-42.069334a32 32 0 0 0 0.042667 0c21.696-16.533333 29.44-14.016 45.418667-8.917333a32 32 0 0 0 40.32-21.248C459.114667 296.533333 482.858667 277.333333 512 277.333333z m-85.333333 320h170.666666v10.666667c0 18.048-13.952 32-32 32h-106.666666c-18.048 0-32-13.952-32-32V597.333333z" p-id="4517" fill="#9cd076"></path></svg>