<?xml version="1.0" standalone="no"?><!DOCTYPE svg PUBLIC "-//W3C//DTD SVG 1.1//EN" "http://www.w3.org/Graphics/SVG/1.1/DTD/svg11.dtd"><svg t="1733357877657" class="icon" viewBox="0 0 1024 1024" version="1.1" xmlns="http://www.w3.org/2000/svg" p-id="4720" xmlns:xlink="http://www.w3.org/1999/xlink" width="200" height="200"><path d="M245.321143 539.501714v313.782857q0 30.939429 21.942857 52.809143 21.796571 21.942857 52.736 21.942857h384q30.939429 0 52.809143-21.942857 21.869714-21.869714 21.869714-52.736v-313.782857q58.368-18.505143 99.108572-67.291428 50.249143-60.196571 50.249142-138.605715 0-89.6-63.414857-153.014857-63.341714-63.341714-152.941714-63.341714-24.649143 0-48.274286 5.412571Q601.088 53.394286 504.246857 53.394286q-94.427429 0-156.598857 66.925714-17.481143-2.925714-35.401143-2.925714-89.6 0-152.941714 63.341714-63.341714 63.414857-63.341714 153.014857 0 78.409143 50.176 138.532572 40.740571 48.859429 99.108571 67.291428z m67.145143 321.389715q-3.145143-3.145143-3.145143-7.533715v-338.651428q0-5.632-1.901714-10.898286-1.828571-5.266286-5.412572-9.508571-3.584-4.388571-8.338286-7.168-4.827429-2.852571-10.24-3.876572-53.174857-10.24-88.064-52.077714-35.328-42.276571-35.328-97.499429 0-63.122286 44.617143-107.739428 44.617143-44.617143 107.666286-44.617143 19.968 0 39.131429 5.12 4.534857 1.170286 9.142857 1.024 4.681143-0.146286 9.142857-1.682286 4.388571-1.462857 8.265143-4.096 3.803429-2.706286 6.729143-6.363428 45.787429-58.002286 119.588571-58.002286 76.214857 0 122.002286 61.074286 2.998857 4.096 7.168 7.021714t8.996571 4.388571q4.827429 1.462857 9.947429 1.462857 5.12-0.146286 9.874285-1.755428 23.844571-8.192 49.371429-8.192 63.122286 0 107.739429 44.617143 44.617143 44.617143 44.617142 107.739428 0 55.222857-35.401142 97.499429-34.889143 41.837714-87.990858 52.077714-5.485714 1.024-10.24 3.876572-4.827429 2.852571-8.411428 7.168-3.584 4.242286-5.412572 9.508571-1.901714 5.266286-1.901714 10.825143v338.651428q0 10.678857-10.678857 10.678858h-384q-4.388571 0-7.533714-3.072z" fill="#e08668" p-id="4721"></path><path d="M280.795429 693.321143q-1.755429 0.219429-3.437715 0.219428-3.218286 0-6.290285-0.658285-3.145143-0.585143-6.070858-1.828572-2.925714-1.243429-5.558857-2.925714-2.633143-1.828571-4.827428-4.022857-2.267429-2.267429-4.022857-4.900572-1.755429-2.633143-2.925715-5.558857-1.243429-2.925714-1.901714-6.070857-0.585143-3.072-0.585143-6.217143 0-3.218286 0.585143-6.290285 0.658286-3.145143 1.828571-6.070858 1.243429-2.925714 2.925715-5.558857 1.828571-2.633143 4.096-4.900571 2.194286-2.194286 4.827428-3.949714 2.633143-1.755429 5.558857-2.998858t6.070858-1.828571q3.072-0.585143 6.290285-0.585143l3.437715 0.146286h462.482285l3.364572-0.146286q3.218286 0 6.290285 0.585143 3.145143 0.585143 6.070858 1.828571 2.925714 1.243429 5.558857 2.925715 2.633143 1.828571 4.827428 4.022857 2.267429 2.267429 4.022857 4.900571 1.755429 2.633143 2.925715 5.558857 1.243429 2.925714 1.901714 6.070858 0.585143 3.072 0.585143 6.290285 0 3.145143-0.585143 6.217143-0.658286 3.145143-1.828571 6.070857-1.243429 2.925714-2.925715 5.558857-1.828571 2.633143-4.096 4.900572-2.194286 2.194286-4.827428 3.949714-2.633143 1.755429-5.558857 2.998857t-6.070858 1.828572q-3.072 0.658286-6.290285 0.658285-1.682286 0-3.364572-0.219428H280.795429z" fill="#e08668" p-id="4722"></path><path d="M458.605714 536.722286q0.219429-1.682286 0.219429-3.364572 0-3.218286-0.585143-6.290285-0.658286-3.145143-1.828571-6.070858-1.243429-2.925714-2.925715-5.558857-1.828571-2.633143-4.096-4.900571-2.194286-2.194286-4.827428-3.949714-2.633143-1.755429-5.558857-2.998858t-6.070858-1.828571q-3.072-0.585143-6.290285-0.585143-3.145143 0-6.290286 0.585143-3.072 0.585143-5.997714 1.828571t-5.558857 2.925715q-2.633143 1.828571-4.900572 4.022857-2.194286 2.267429-4.022857 4.900571-1.755429 2.633143-2.925714 5.558857-1.243429 2.925714-1.828572 6.070858-0.658286 3.072-0.658285 6.290285 0 1.682286 0.219428 3.364572v121.197714q-0.219429 1.682286-0.219428 3.437714 0 3.145143 0.658285 6.217143 0.585143 3.145143 1.828572 6.070857 1.170286 2.925714 2.925714 5.558857 1.828571 2.633143 4.022857 4.900572 2.194286 2.194286 4.900572 3.949714 2.633143 1.755429 5.558857 2.998857t5.997714 1.828572q3.145143 0.658286 6.290286 0.658285 3.218286 0 6.290285-0.658285 3.145143-0.585143 6.070858-1.828572 2.925714-1.243429 5.558857-2.925714 2.633143-1.828571 4.827428-4.022857 2.267429-2.267429 4.022857-4.900572 1.755429-2.633143 2.925715-5.558857 1.243429-2.925714 1.901714-6.070857 0.585143-3.072 0.585143-6.217143 0-1.755429-0.146286-3.437714V536.722286zM778.678857 600.722286l0.146286-3.364572q0-3.218286-0.585143-6.290285-0.658286-3.145143-1.828571-6.070858-1.243429-2.925714-2.925715-5.558857-1.828571-2.633143-4.096-4.900571-2.194286-2.194286-4.827428-3.949714-2.633143-1.755429-5.558857-2.998858t-6.070858-1.828571q-3.072-0.585143-6.290285-0.585143-3.145143 0-6.290286 0.585143-3.072 0.585143-5.997714 1.828571t-5.558857 2.925715q-2.633143 1.828571-4.900572 4.022857-2.194286 2.267429-4.022857 4.900571-1.755429 2.633143-2.925714 5.558857-1.243429 2.925714-1.828572 6.070858-0.658286 3.072-0.658285 6.290285 0 1.682286 0.219428 3.364572V721.92q-0.219429 1.682286-0.219428 3.437714 0 3.145143 0.658285 6.217143 0.585143 3.145143 1.828572 6.070857 1.170286 2.925714 2.925714 5.558857 1.828571 2.633143 4.022857 4.900572 2.194286 2.194286 4.900572 3.949714 2.633143 1.755429 5.558857 2.998857t5.997714 1.828572q3.145143 0.658286 6.290286 0.658285 3.218286 0 6.290285-0.658285 3.145143-0.585143 6.070858-1.828572 2.925714-1.243429 5.558857-2.925714 2.633143-1.828571 4.827428-4.022857 2.267429-2.267429 4.022857-4.900572 1.755429-2.633143 2.925715-5.558857 1.243429-2.925714 1.901714-6.070857 0.585143-3.072 0.585143-6.217143 0-1.755429-0.146286-3.437714V600.722286zM309.394286 600.722286l0.146285-3.364572q0-3.218286-0.658285-6.290285-0.585143-3.145143-1.828572-6.070858-1.170286-2.925714-2.925714-5.558857-1.828571-2.633143-4.022857-4.900571-2.194286-2.194286-4.900572-3.949714Q292.571429 568.832 289.645714 567.588571t-5.997714-1.828571q-3.145143-0.585143-6.290286-0.585143-3.218286 0-6.290285 0.585143-3.145143 0.585143-6.070858 1.828571-2.925714 1.243429-5.558857 2.925715-2.633143 1.828571-4.827428 4.022857-2.267429 2.267429-4.022857 4.900571-1.755429 2.633143-2.925715 5.558857-1.243429 2.925714-1.901714 6.070858-0.585143 3.072-0.585143 6.290285l0.146286 3.364572V721.92q-0.146286 1.682286-0.146286 3.437714 0 3.145143 0.585143 6.217143 0.658286 3.145143 1.828571 6.070857 1.243429 2.925714 2.925715 5.558857 1.828571 2.633143 4.096 4.900572 2.194286 2.194286 4.827428 3.949714 2.633143 1.755429 5.558857 2.998857t6.070858 1.828572q3.072 0.658286 6.290285 0.658285 3.145143 0 6.290286-0.658285 3.072-0.585143 5.997714-1.828572t5.558857-2.925714q2.633143-1.828571 4.900572-4.022857 2.194286-2.267429 4.022857-4.900572 1.755429-2.633143 2.925714-5.558857 1.243429-2.925714 1.828572-6.070857 0.658286-3.072 0.658285-6.217143 0-1.755429-0.219428-3.437714V600.722286z" fill="#e08668" p-id="4723"></path></svg>